<?xml version="1.0" standalone="no"?>
<!DOCTYPE svg PUBLIC "-//W3C//DTD SVG 20010904//EN"
 "http://www.w3.org/TR/2001/REC-SVG-20010904/DTD/svg10.dtd">
<svg version="1.0" xmlns="http://www.w3.org/2000/svg"
 width="192.000000pt" height="192.000000pt" viewBox="0 0 192.000000 192.000000"
 preserveAspectRatio="xMidYMid meet">

<g transform="translate(0.000000,192.000000) scale(0.100000,-0.100000)"
fill="#000000" stroke="none">
<path d="M398 1708 c-22 -27 -23 -47 -4 -74 13 -18 4 -100 -85 -735 -54 -393
-99 -715 -99 -716 0 -2 9 -3 20 -3 12 0 22 8 25 22 6 30 75 535 75 554 0 12
35 14 208 14 l208 0 -28 -201 c-22 -153 -26 -205 -17 -215 9 -12 89 -14 444
-14 383 0 434 2 446 16 11 13 -3 47 -94 230 l-107 214 158 191 c86 104 161
199 166 209 6 13 5 25 -4 35 -10 13 -46 15 -216 15 -147 0 -204 3 -204 11 0 7
11 97 25 202 20 144 23 192 14 203 -9 12 -83 14 -421 14 l-410 0 -20 25 c-24
31 -57 32 -80 3z m388 -74 c-3 -9 -6 -29 -6 -45 l0 -29 -98 0 -98 0 -49 -44
-49 -43 44 -6 c25 -3 89 -9 143 -13 l97 -6 0 -69 c0 -38 -3 -69 -6 -69 -3 0
-25 14 -50 31 -126 86 -215 100 -265 40 -14 -17 -28 -31 -31 -31 -2 0 4 57 14
127 26 178 20 173 211 173 132 0 148 -2 143 -16z m524 5 c0 -6 -7 -67 -16
-134 l-17 -124 -28 21 c-41 30 -103 19 -221 -42 -109 -54 -108 -55 -85 35 l13
50 90 8 c49 4 115 11 148 15 l59 7 -34 42 -34 42 -97 0 c-106 1 -104 0 -92 60
l7 31 153 0 c106 0 154 -3 154 -11z m378 -429 c-1 -5 -70 -91 -153 -191 -82
-100 -156 -190 -163 -200 -11 -16 2 -46 93 -230 59 -116 104 -213 102 -215 -2
-2 -192 -3 -421 -2 l-417 3 211 183 c116 101 228 195 249 209 l37 24 23 177
c12 97 25 194 28 215 l6 37 204 0 c125 0 203 -4 201 -10z m-967 -33 c27 -18
35 -30 37 -60 l3 -37 54 0 c51 0 55 2 61 28 4 15 11 33 17 40 17 21 84 52 112
52 29 0 29 1 -7 -98 -20 -54 -40 -72 -79 -72 -22 0 -22 0 -3 -21 41 -47 117
-99 143 -99 40 0 92 41 131 103 19 31 38 56 41 57 5 0 -13 -161 -26 -237 l-6
-33 -120 0 c-77 0 -118 4 -114 10 3 5 -19 57 -50 115 l-57 105 -51 0 -52 0
-85 -107 c-47 -58 -84 -110 -83 -115 2 -4 -53 -8 -122 -8 -112 0 -125 2 -125
18 0 9 9 76 20 147 11 72 20 137 20 145 1 24 20 -10 20 -35 0 -28 44 -119 69
-144 12 -12 33 -21 49 -21 30 0 108 43 162 89 l35 30 -28 1 c-35 0 -47 29 -47
111 0 55 1 59 24 59 12 0 38 -10 57 -23z m-11 -352 c0 -22 -4 -25 -32 -25
l-33 1 28 24 c35 31 37 31 37 0z m180 0 l23 -25 -31 0 c-27 0 -32 4 -32 25 0
14 4 25 8 25 5 0 19 -11 32 -25z"/>
</g>
</svg>
